<svg version="1" xmlns="http://www.w3.org/2000/svg" width="682.667" height="682.667" viewBox="0 0 512.000000 512.000000"><path d="M299.5 96.1c-39.8 5.4-72.6 25.7-94.1 58l-6.6 9.8-5.1-2.9c-12.9-7.1-30.1-9.7-45.2-6.6-25.2 5.1-45.7 25.6-50.9 51.1l-1.3 5.9-7.7 1.2c-22 3.4-40.7 12.6-56.4 27.8-14 13.5-23.9 30.1-28.9 48.3C1 297.3.7 300.3.7 314c0 13.7.3 16.7 2.7 25.5 4.8 17.8 13.6 33 26.8 46.3 12.9 13 28.4 22 46.8 27.1l9.5 2.6 173.5.3c189.4.3 181.2.5 196.9-5.4 25.7-9.6 45.7-32.7 52.2-60.2 2.8-11.4 2.3-30.7-1.1-42.2-5.5-19.2-18-36.2-34.6-47-7.2-4.7-19.3-10-26.2-11.5l-3.4-.7.8-7.6c3.3-31.8-4.2-62.4-22.1-89.2-6.9-10.3-24.1-27.4-34.6-34.3-9.3-6.2-21.8-12.3-31.4-15.6-16.4-5.4-41.7-8.1-57-6zM326 113c27.7 3.4 50.1 14.1 68.5 32.5 17 16.9 28.1 37.8 32 60.4 1.7 9.3 1.9 29.9.5 37.6-3.3 17.7-2.8 18.8 10.5 21.5 16.9 3.4 27.8 9.2 38.8 21 7.8 8.2 14 20 16.3 31 2.3 10.8 1.4 26-2.1 36.3-6.2 17.9-21.2 33.9-38.3 40.6-13.3 5.3-6.9 5.1-188.4 5.1-179.7-.1-175 .1-189.7-5-23.2-7.8-44.2-29.1-52-52.5-5.9-17.9-6.4-33.3-1.5-50.3 10.3-35.7 43.9-62.1 79.1-62.2 6.2 0 7.5-.3 10.2-2.6 2.6-2.2 3.1-3.3 3.1-7.2.1-12.5 5.6-25.8 14.5-34.7 7.1-7.1 13.7-10.9 22.6-13 15.8-3.7 29.9-.4 43.3 10 6.8 5.2 11 5.9 14.3 2.2 1.1-1.2 4-6 6.4-10.7 20.9-40.5 67.3-65.4 111.9-60z"/></svg>